<svg width="45" height="41" viewBox="0 0 45 41" fill="none" xmlns="http://www.w3.org/2000/svg">
<path d="M12.9377 0.999834L14.6492 2.71484" stroke="#AB4EE4" stroke-width="0.860901" stroke-miterlimit="10" stroke-linecap="round" stroke-linejoin="round"/>
<path d="M14.6492 0.999834L12.9377 2.71484" stroke="#AB4EE4" stroke-width="0.860901" stroke-miterlimit="10" stroke-linecap="round" stroke-linejoin="round"/>
<path d="M41.3767 18.0971L44.4843 21.2012" stroke="#AB4EE4" stroke-width="0.860901" stroke-miterlimit="10" stroke-linecap="round" stroke-linejoin="round"/>
<path d="M44.4843 18.0971L41.3767 21.2012" stroke="#AB4EE4" stroke-width="0.860901" stroke-miterlimit="10" stroke-linecap="round" stroke-linejoin="round"/>
<path d="M34.1238 5.70895C34.1238 6.71882 33.3053 7.53735 32.2954 7.53735C31.2856 7.53735 30.467 6.71882 30.467 5.70895C30.467 4.69907 31.2856 3.88056 32.2954 3.88056C33.3053 3.88056 34.1238 4.69907 34.1238 5.70895Z" stroke="#AB4EE4" stroke-width="0.860901" stroke-miterlimit="10" stroke-linecap="round" stroke-linejoin="round"/>
<path d="M2.66188 21.2014C2.66188 21.662 2.2898 22.0341 1.8327 22.0341C1.37206 22.0341 1 21.662 1 21.2014C1 20.7443 1.37206 20.3722 1.8327 20.3722C2.2898 20.3722 2.66188 20.7443 2.66188 21.2014Z" stroke="#AB4EE4" stroke-width="0.860901" stroke-miterlimit="10" stroke-linecap="round" stroke-linejoin="round"/>
<path d="M21.7395 15.7729C21.7395 18.838 19.2521 21.3254 16.187 21.3254C13.1184 21.3254 10.6345 18.838 10.6345 15.7729C10.6345 12.7078 13.1184 10.2204 16.187 10.2204C19.2521 10.2204 21.7395 12.7078 21.7395 15.7729Z" stroke="#AB4EE4" stroke-width="1.28675" stroke-miterlimit="10" stroke-linecap="round" stroke-linejoin="round"/>
<path d="M25.5269 33.0007V37.1642H6.84253V33.0007C6.84253 28.3553 10.2335 24.5036 14.6699 23.7807L14.1774 32.0333L16.1865 33.6101L18.1956 32.0333L17.7031 23.7807C19.6768 24.1031 21.4378 25.0422 22.7914 26.3922C24.4781 28.0824 25.5269 30.4175 25.5269 33.0007Z" stroke="#AB4EE4" stroke-width="1.28675" stroke-miterlimit="10" stroke-linecap="round" stroke-linejoin="round"/>
<path d="M36.2357 18.7986C36.2357 21.8636 33.7482 24.3511 30.6831 24.3511C27.6145 24.3511 25.1306 21.8636 25.1306 18.7986C25.1306 15.73 27.6145 13.246 30.6831 13.246C33.7482 13.246 36.2357 15.73 36.2357 18.7986Z" stroke="#AB4EE4" stroke-width="1.28675" stroke-miterlimit="10" stroke-linecap="round" stroke-linejoin="round"/>
<path d="M24.5998 28.9363C25.9144 27.7174 27.3211 27.1079 29.1673 26.8067L28.6747 35.0593L30.6838 36.6362L32.693 35.0593L32.2004 26.8067C34.1741 27.1292 35.9352 28.0682 37.2887 29.4147C38.9754 31.1084 40.0242 33.4435 40.0242 36.0267V40.1866H21.3398V37.4405" stroke="#AB4EE4" stroke-width="1.28675" stroke-miterlimit="10" stroke-linecap="round" stroke-linejoin="round"/>
</svg>
